<?xml version="1.0" encoding="UTF-8" standalone="no"?>
<!-- Created with Inkscape (http://www.inkscape.org/) -->

<svg
   xmlns:dc="http://purl.org/dc/elements/1.1/"
   xmlns:cc="http://creativecommons.org/ns#"
   xmlns:rdf="http://www.w3.org/1999/02/22-rdf-syntax-ns#"
   xmlns:svg="http://www.w3.org/2000/svg"
   xmlns="http://www.w3.org/2000/svg"
   xmlns:sodipodi="http://sodipodi.sourceforge.net/DTD/sodipodi-0.dtd"
   xmlns:inkscape="http://www.inkscape.org/namespaces/inkscape"
   version="1.1"
   id="svg2"
   xml:space="preserve"
   width="401.33334"
   height="353.33334"
   viewBox="0 0 401.33334 353.33334"
   sodipodi:docname="extended_analysis_both.svg"
   inkscape:version="0.92.5 (2060ec1f9f, 2020-04-08)"><metadata
     id="metadata8"><rdf:RDF><cc:Work
         rdf:about=""><dc:format>image/svg+xml</dc:format><dc:type
           rdf:resource="http://purl.org/dc/dcmitype/StillImage" /><dc:title></dc:title></cc:Work></rdf:RDF></metadata><defs
     id="defs6"><clipPath
       clipPathUnits="userSpaceOnUse"
       id="clipPath46"><path
         d="M 41.23,31.91 H 296.02 V 260.02 H 41.23 Z"
         id="path44"
         inkscape:connector-curvature="0" /></clipPath></defs><sodipodi:namedview
     pagecolor="#ffffff"
     bordercolor="#666666"
     borderopacity="1"
     objecttolerance="10"
     gridtolerance="10"
     guidetolerance="10"
     inkscape:pageopacity="0"
     inkscape:pageshadow="2"
     inkscape:window-width="1920"
     inkscape:window-height="987"
     id="namedview4"
     showgrid="false"
     inkscape:zoom="2.053346"
     inkscape:cx="200.66667"
     inkscape:cy="176.66667"
     inkscape:window-x="0"
     inkscape:window-y="0"
     inkscape:window-maximized="1"
     inkscape:current-layer="g10" /><g
     id="g10"
     inkscape:groupmode="layer"
     inkscape:label="extended_analysis_both"
     transform="matrix(1.3333333,0,0,-1.3333333,0,353.33333)"><g
       id="g12"><path
         d="M 0,0 H 301.5 V 265.5 H 0 Z"
         style="fill:#ffffff;fill-opacity:1;fill-rule:nonzero;stroke:none"
         id="path14"
         inkscape:connector-curvature="0" /></g><g
       id="g16" /><g
       id="g18" /><g
       id="g20" /><g
       id="g22" /><g
       id="g24" /><g
       id="g26" /><g
       id="g28" /><g
       id="g30" /><g
       id="g32" /><g
       id="g34"><path
         d="M 0,0 H 301.5 V 265.5 H 0 Z"
         style="fill:#ffffff;fill-opacity:1;fill-rule:nonzero;stroke:#ffffff;stroke-width:1.07000005;stroke-linecap:round;stroke-linejoin:round;stroke-miterlimit:10;stroke-dasharray:none;stroke-opacity:1"
         id="path36"
         inkscape:connector-curvature="0" /></g><g
       id="g38" /><g
       id="g40"><g
         id="g42"
         clip-path="url(#clipPath46)"><path
           d="M 41.23,31.91 H 296.02 V 260.02 H 41.23 Z"
           style="fill:#ffffff;fill-opacity:1;fill-rule:nonzero;stroke:none"
           id="path48"
           inkscape:connector-curvature="0" /><path
           d="M 41.23,61 H 296.02"
           style="fill:none;stroke:#ebebeb;stroke-width:0.52999997;stroke-linecap:butt;stroke-linejoin:round;stroke-miterlimit:10;stroke-dasharray:none;stroke-opacity:1"
           id="path50"
           inkscape:connector-curvature="0" /><path
           d="M 41.23,112.78 H 296.02"
           style="fill:none;stroke:#ebebeb;stroke-width:0.52999997;stroke-linecap:butt;stroke-linejoin:round;stroke-miterlimit:10;stroke-dasharray:none;stroke-opacity:1"
           id="path52"
           inkscape:connector-curvature="0" /><path
           d="M 41.23,164.56 H 296.02"
           style="fill:none;stroke:#ebebeb;stroke-width:0.52999997;stroke-linecap:butt;stroke-linejoin:round;stroke-miterlimit:10;stroke-dasharray:none;stroke-opacity:1"
           id="path54"
           inkscape:connector-curvature="0" /><path
           d="M 41.23,216.35 H 296.02"
           style="fill:none;stroke:#ebebeb;stroke-width:0.52999997;stroke-linecap:butt;stroke-linejoin:round;stroke-miterlimit:10;stroke-dasharray:none;stroke-opacity:1"
           id="path56"
           inkscape:connector-curvature="0" /><path
           d="M 53.91,31.91 V 260.02"
           style="fill:none;stroke:#ebebeb;stroke-width:0.52999997;stroke-linecap:butt;stroke-linejoin:round;stroke-miterlimit:10;stroke-dasharray:none;stroke-opacity:1"
           id="path58"
           inkscape:connector-curvature="0" /><path
           d="M 121.65,31.91 V 260.02"
           style="fill:none;stroke:#ebebeb;stroke-width:0.52999997;stroke-linecap:butt;stroke-linejoin:round;stroke-miterlimit:10;stroke-dasharray:none;stroke-opacity:1"
           id="path60"
           inkscape:connector-curvature="0" /><path
           d="M 188.29,31.91 V 260.02"
           style="fill:none;stroke:#ebebeb;stroke-width:0.52999997;stroke-linecap:butt;stroke-linejoin:round;stroke-miterlimit:10;stroke-dasharray:none;stroke-opacity:1"
           id="path62"
           inkscape:connector-curvature="0" /><path
           d="M 254.94,31.91 V 260.02"
           style="fill:none;stroke:#ebebeb;stroke-width:0.52999997;stroke-linecap:butt;stroke-linejoin:round;stroke-miterlimit:10;stroke-dasharray:none;stroke-opacity:1"
           id="path64"
           inkscape:connector-curvature="0" /><path
           d="M 41.23,35.11 H 296.02"
           style="fill:none;stroke:#ebebeb;stroke-width:1.07000005;stroke-linecap:butt;stroke-linejoin:round;stroke-miterlimit:10;stroke-dasharray:none;stroke-opacity:1"
           id="path66"
           inkscape:connector-curvature="0" /><path
           d="M 41.23,86.89 H 296.02"
           style="fill:none;stroke:#ebebeb;stroke-width:1.07000005;stroke-linecap:butt;stroke-linejoin:round;stroke-miterlimit:10;stroke-dasharray:none;stroke-opacity:1"
           id="path68"
           inkscape:connector-curvature="0" /><path
           d="M 41.23,138.67 H 296.02"
           style="fill:none;stroke:#ebebeb;stroke-width:1.07000005;stroke-linecap:butt;stroke-linejoin:round;stroke-miterlimit:10;stroke-dasharray:none;stroke-opacity:1"
           id="path70"
           inkscape:connector-curvature="0" /><path
           d="M 41.23,190.46 H 296.02"
           style="fill:none;stroke:#ebebeb;stroke-width:1.07000005;stroke-linecap:butt;stroke-linejoin:round;stroke-miterlimit:10;stroke-dasharray:none;stroke-opacity:1"
           id="path72"
           inkscape:connector-curvature="0" /><path
           d="M 41.23,242.24 H 296.02"
           style="fill:none;stroke:#ebebeb;stroke-width:1.07000005;stroke-linecap:butt;stroke-linejoin:round;stroke-miterlimit:10;stroke-dasharray:none;stroke-opacity:1"
           id="path74"
           inkscape:connector-curvature="0" /><path
           d="M 87.78,31.91 V 260.02"
           style="fill:none;stroke:#ebebeb;stroke-width:1.07000005;stroke-linecap:butt;stroke-linejoin:round;stroke-miterlimit:10;stroke-dasharray:none;stroke-opacity:1"
           id="path76"
           inkscape:connector-curvature="0" /><path
           d="M 155.52,31.91 V 260.02"
           style="fill:none;stroke:#ebebeb;stroke-width:1.07000005;stroke-linecap:butt;stroke-linejoin:round;stroke-miterlimit:10;stroke-dasharray:none;stroke-opacity:1"
           id="path78"
           inkscape:connector-curvature="0" /><path
           d="M 221.07,31.91 V 260.02"
           style="fill:none;stroke:#ebebeb;stroke-width:1.07000005;stroke-linecap:butt;stroke-linejoin:round;stroke-miterlimit:10;stroke-dasharray:none;stroke-opacity:1"
           id="path80"
           inkscape:connector-curvature="0" /><path
           d="M 288.81,31.91 V 260.02"
           style="fill:none;stroke:#ebebeb;stroke-width:1.07000005;stroke-linecap:butt;stroke-linejoin:round;stroke-miterlimit:10;stroke-dasharray:none;stroke-opacity:1"
           id="path82"
           inkscape:connector-curvature="0" /><path
           d="m 52.82,101.89 2.18,4.42 2.19,3.02 2.18,12.84 2.19,47.19 2.18,-33.15 2.19,-31.74 2.18,26.08 2.19,-20.56 2.18,13.35 2.19,-6.78 2.18,37.37 2.19,-35.42 2.18,-9.64 2.19,-1.61 2.18,1.32 2.19,14.73 2.18,19.34 2.19,-26.69 2.18,23.63 2.19,-41.26 2.18,10.79 2.19,10.32 2.18,-11.81 2.19,24.47 2.18,10.94 2.19,-12.12 2.18,-22.47 2.19,10.71 2.18,-18.47 2.19,-7.4 2.18,39.42 2.19,-21.7 2.19,-1.06 2.18,-9.9 2.19,21.81 2.18,-10.72 2.19,-21.01 2.18,12.17 2.19,24.87 2.18,-4.18 2.19,-1.85 2.18,-24.31 2.19,10.69 2.18,10.89 2.19,-5.82 6.55,-35.26 2.19,6.63 2.18,25.95 2.19,-4.94 2.18,12.79 2.19,14.04 2.18,20.85 2.19,-29.57 2.18,1.55 2.19,3.54 2.18,-23.79 2.19,-6.78 2.18,12.57 2.19,8.42 2.18,-9.95 2.19,20.56 2.18,-13.14 2.19,12.19 2.18,12.85 2.19,33.01 2.18,-31.83 2.19,-25.42 2.18,6.83 2.19,-12.65 2.19,0.92 2.18,5.93 2.19,33.52 2.18,-29.18 2.19,-13.72 2.18,52.02 2.19,-70.99 2.18,10.85 2.19,67.13 2.18,-30.06 2.19,-26.01 2.18,11.91 2.19,-27.15 2.18,2.82 2.19,-5.37 2.18,0.03 2.19,24.68 2.18,-0.69 2.19,-24.33 2.18,24.73 2.19,-25.67 2.18,-1.74 2.19,-18.69 2.18,6.55 2.19,12.07 2.18,8.34 2.19,-15.43 2.18,26.09 2.19,75.95 2.18,-33.11 2.19,-28.27 2.18,-13.62 2.19,-7.22 2.18,-6.72 2.19,-7.83"
           style="fill:none;stroke:#ff0000;stroke-width:1.07000005;stroke-linecap:butt;stroke-linejoin:round;stroke-miterlimit:10;stroke-dasharray:none;stroke-opacity:1"
           id="path84"
           inkscape:connector-curvature="0" /><path
           d="m 52.82,76.68 2.18,11.39 2.19,-4.25 2.18,16.45 2.19,-7.38 2.18,2.92 2.19,7.67 2.18,-16.34 2.19,-3.07 2.18,10.07 2.19,-9.66 2.18,17.14 2.19,-13.49 2.18,10.6 2.19,-10.83 2.18,-13.16 2.19,62.08 2.18,-16.82 2.19,-17.12 2.18,20.29 2.19,-27.19 2.18,-1.81 2.19,-13.65 2.18,12.23 2.19,21.06 2.18,-7.99 2.19,1.73 2.18,-10.5 2.19,1.78 2.18,-24.36 2.19,4.5 2.18,13.85 2.19,1.6 2.19,-5.92 2.18,-8.37 2.19,0.06 2.18,-4.08 2.19,0.61 2.18,18.03 2.19,0.53 2.18,4.75 2.19,-4.13 2.18,-7.36 2.19,-10.08 2.18,-20.63 2.19,14.02 6.55,-12.51 2.19,-17.06 2.18,27.06 2.19,11.93 2.18,16.8 2.19,0.31 2.18,-24.86 2.19,6.7 2.18,3.68 2.19,-21.08 2.18,21.22 2.19,-11.09 2.18,-7.55 2.19,11.17 2.18,4.73 2.19,16.19 2.18,-14.43 2.19,10.08 2.18,2.85 2.19,17.79 2.18,13.45 2.19,-21.54 2.18,21.31 2.19,-40.5 2.19,-7.33 2.18,8.11 2.19,7.58 2.18,12.63 2.19,-11.68 2.18,-5.59 2.19,-12.38 2.18,9.59 2.19,16.3 2.18,17.02 2.19,-24 2.18,-12.81 2.19,-8.44 2.18,7.76 2.19,-7.59 2.18,26.23 2.19,-3.09 2.18,-11.83 2.19,10.29 2.18,-1.17 2.19,-10.67 2.18,4.95 2.19,-22.72 2.18,19.56 2.19,16.2 2.18,9.05 2.19,-35.47 2.18,60.53 2.19,112.12 2.18,-111.35 2.19,-47.04 2.18,2.96 2.19,-11.75 2.18,6.29 2.19,12.21"
           style="fill:none;stroke:#0000ff;stroke-width:1.07000005;stroke-linecap:butt;stroke-linejoin:round;stroke-miterlimit:10;stroke-dasharray:none;stroke-opacity:1"
           id="path86"
           inkscape:connector-curvature="0" /><path
           d="M 41.23,31.91 H 296.02 V 260.02 H 41.23 Z"
           style="fill:none;stroke:#333333;stroke-width:1.07000005;stroke-linecap:round;stroke-linejoin:round;stroke-miterlimit:10;stroke-dasharray:none;stroke-opacity:1"
           id="path88"
           inkscape:connector-curvature="0" /></g></g><g
       id="g90" /><g
       id="g92" /><g
       id="g94" /><g
       id="g96" /><g
       id="g98" /><g
       id="g100" /><g
       id="g102" /><g
       id="g104" /><g
       id="g106" /><g
       id="g108" /><g
       id="g110" /><g
       id="g112" /><g
       id="g114" /><g
       id="g116" /><g
       id="g118" /><g
       id="g120"><text
         transform="matrix(1,0,0,-1,18.54,31.87)"
         style="font-variant:normal;font-weight:normal;font-size:9px;font-family:Helvetica;-inkscape-font-specification:Helvetica;writing-mode:lr-tb;fill:#4d4d4d;fill-opacity:1;fill-rule:nonzero;stroke:none"
         id="text124"><tspan
           x="0 5.256 10.26 12.762"
           y="0"
           sodipodi:role="line"
           id="tspan122">−0.2</tspan></text>
<text
         transform="matrix(1,0,0,-1,23.79,83.66)"
         style="font-variant:normal;font-weight:normal;font-size:9px;font-family:Helvetica;-inkscape-font-specification:Helvetica;writing-mode:lr-tb;fill:#4d4d4d;fill-opacity:1;fill-rule:nonzero;stroke:none"
         id="text128"><tspan
           x="0 5.0040002 7.506"
           y="0"
           sodipodi:role="line"
           id="tspan126">0.0</tspan></text>
<text
         transform="matrix(1,0,0,-1,23.79,135.44)"
         style="font-variant:normal;font-weight:normal;font-size:9px;font-family:Helvetica;-inkscape-font-specification:Helvetica;writing-mode:lr-tb;fill:#4d4d4d;fill-opacity:1;fill-rule:nonzero;stroke:none"
         id="text132"><tspan
           x="0 5.0040002 7.506"
           y="0"
           sodipodi:role="line"
           id="tspan130">0.2</tspan></text>
<text
         transform="matrix(1,0,0,-1,23.79,187.22)"
         style="font-variant:normal;font-weight:normal;font-size:9px;font-family:Helvetica;-inkscape-font-specification:Helvetica;writing-mode:lr-tb;fill:#4d4d4d;fill-opacity:1;fill-rule:nonzero;stroke:none"
         id="text136"><tspan
           x="0 5.0040002 7.506"
           y="0"
           sodipodi:role="line"
           id="tspan134">0.4</tspan></text>
<text
         transform="matrix(1,0,0,-1,23.79,239.01)"
         style="font-variant:normal;font-weight:normal;font-size:9px;font-family:Helvetica;-inkscape-font-specification:Helvetica;writing-mode:lr-tb;fill:#4d4d4d;fill-opacity:1;fill-rule:nonzero;stroke:none"
         id="text140"><tspan
           x="0 5.0040002 7.506"
           y="0"
           sodipodi:role="line"
           id="tspan138">0.6</tspan></text>
</g><g
       id="g142" /><g
       id="g144"><path
         d="m 38.49,35.11 h 2.74"
         style="fill:none;stroke:#333333;stroke-width:1.07000005;stroke-linecap:butt;stroke-linejoin:round;stroke-miterlimit:10;stroke-dasharray:none;stroke-opacity:1"
         id="path146"
         inkscape:connector-curvature="0" /><path
         d="m 38.49,86.89 h 2.74"
         style="fill:none;stroke:#333333;stroke-width:1.07000005;stroke-linecap:butt;stroke-linejoin:round;stroke-miterlimit:10;stroke-dasharray:none;stroke-opacity:1"
         id="path148"
         inkscape:connector-curvature="0" /><path
         d="m 38.49,138.67 h 2.74"
         style="fill:none;stroke:#333333;stroke-width:1.07000005;stroke-linecap:butt;stroke-linejoin:round;stroke-miterlimit:10;stroke-dasharray:none;stroke-opacity:1"
         id="path150"
         inkscape:connector-curvature="0" /><path
         d="m 38.49,190.46 h 2.74"
         style="fill:none;stroke:#333333;stroke-width:1.07000005;stroke-linecap:butt;stroke-linejoin:round;stroke-miterlimit:10;stroke-dasharray:none;stroke-opacity:1"
         id="path152"
         inkscape:connector-curvature="0" /><path
         d="m 38.49,242.24 h 2.74"
         style="fill:none;stroke:#333333;stroke-width:1.07000005;stroke-linecap:butt;stroke-linejoin:round;stroke-miterlimit:10;stroke-dasharray:none;stroke-opacity:1"
         id="path154"
         inkscape:connector-curvature="0" /></g><g
       id="g156" /><g
       id="g158" /><g
       id="g160" /><g
       id="g162" /><g
       id="g164" /><g
       id="g166" /><g
       id="g168" /><g
       id="g170" /><g
       id="g172" /><g
       id="g174"><path
         d="m 87.78,29.17 v 2.74"
         style="fill:none;stroke:#333333;stroke-width:1.07000005;stroke-linecap:butt;stroke-linejoin:round;stroke-miterlimit:10;stroke-dasharray:none;stroke-opacity:1"
         id="path176"
         inkscape:connector-curvature="0" /><path
         d="m 155.52,29.17 v 2.74"
         style="fill:none;stroke:#333333;stroke-width:1.07000005;stroke-linecap:butt;stroke-linejoin:round;stroke-miterlimit:10;stroke-dasharray:none;stroke-opacity:1"
         id="path178"
         inkscape:connector-curvature="0" /><path
         d="m 221.07,29.17 v 2.74"
         style="fill:none;stroke:#333333;stroke-width:1.07000005;stroke-linecap:butt;stroke-linejoin:round;stroke-miterlimit:10;stroke-dasharray:none;stroke-opacity:1"
         id="path180"
         inkscape:connector-curvature="0" /><path
         d="m 288.81,29.17 v 2.74"
         style="fill:none;stroke:#333333;stroke-width:1.07000005;stroke-linecap:butt;stroke-linejoin:round;stroke-miterlimit:10;stroke-dasharray:none;stroke-opacity:1"
         id="path182"
         inkscape:connector-curvature="0" /></g><g
       id="g184" /><g
       id="g186"><text
         transform="matrix(1,0,0,-1,80.78,20.52)"
         style="font-variant:normal;font-weight:normal;font-size:9px;font-family:Helvetica;-inkscape-font-specification:Helvetica;writing-mode:lr-tb;fill:#4d4d4d;fill-opacity:1;fill-rule:nonzero;stroke:none"
         id="text190"><tspan
           x="0 7.0019999 11.502"
           y="0"
           sodipodi:role="line"
           id="tspan188">Oct</tspan></text>
<text
         transform="matrix(1,0,0,-1,147.58,20.52)"
         style="font-variant:normal;font-weight:normal;font-size:9px;font-family:Helvetica;-inkscape-font-specification:Helvetica;writing-mode:lr-tb;fill:#4d4d4d;fill-opacity:1;fill-rule:nonzero;stroke:none"
         id="text194"><tspan
           x="0 6.4980001 11.367"
           y="0"
           sodipodi:role="line"
           id="tspan192">Nov</tspan></text>
<text
         transform="matrix(1,0,0,-1,213.07,20.52)"
         style="font-variant:normal;font-weight:normal;font-size:9px;font-family:Helvetica;-inkscape-font-specification:Helvetica;writing-mode:lr-tb;fill:#4d4d4d;fill-opacity:1;fill-rule:nonzero;stroke:none"
         id="text198"><tspan
           x="0 6.4980001 11.502"
           y="0"
           sodipodi:role="line"
           id="tspan196">Dec</tspan></text>
<text
         transform="matrix(1,0,0,-1,281.65,20.52)"
         style="font-variant:normal;font-weight:normal;font-size:9px;font-family:Helvetica;-inkscape-font-specification:Helvetica;writing-mode:lr-tb;fill:#4d4d4d;fill-opacity:1;fill-rule:nonzero;stroke:none"
         id="text202"><tspan
           x="0 4.3200002 9.3240004"
           y="0"
           sodipodi:role="line"
           id="tspan200">Jan</tspan></text>
</g><g
       id="g204" /><g
       id="g206" /><g
       id="g208" /><g
       id="g210" /><g
       id="g212" /><g
       id="g214" /><g
       id="g216" /><g
       id="g218"><text
         transform="matrix(0,1,1,0,13.38,62.9)"
         style="font-variant:normal;font-weight:normal;font-size:11px;font-family:Helvetica;-inkscape-font-specification:Helvetica;writing-mode:lr-tb;fill:#000000;fill-opacity:1;fill-rule:nonzero;stroke:none"
         id="text222"><tspan
           x="0 7.9419999 14.058 16.5 18.941999 24.441999 27.5 34.067001 40.182999 42.625 48.741001 54.856998 60.356998 63.415001 71.357002 77.473 86.636002 92.751999 95.194 101.31 107.426 113.542 116.6 123.937 130.05299 136.16901 139.22701 141.66901 150.832 156.948 163.064"
           y="0"
           sodipodi:role="line"
           id="tspan220">Daily Values Combined Sentiment</tspan></text>
</g><g
       id="g224" /><g
       id="g226" /><g
       id="g228" /><g
       id="g230" /><g
       id="g232" /><g
       id="g234" /><g
       id="g236" /><g
       id="g238" /><g
       id="g240" /><g
       id="g242" /><g
       id="g244" /><g
       id="g246" /></g></svg>