<?xml version="1.0" encoding="UTF-8" standalone="no"?>
<!-- Generator: Adobe Illustrator 16.0.5, SVG Export Plug-In . SVG Version: 6.00 Build 0)  -->

<svg
   xmlns:dc="http://purl.org/dc/elements/1.1/"
   xmlns:cc="http://creativecommons.org/ns#"
   xmlns:rdf="http://www.w3.org/1999/02/22-rdf-syntax-ns#"
   xmlns:svg="http://www.w3.org/2000/svg"
   xmlns="http://www.w3.org/2000/svg"
   xmlns:sodipodi="http://sodipodi.sourceforge.net/DTD/sodipodi-0.dtd"
   xmlns:inkscape="http://www.inkscape.org/namespaces/inkscape"
   version="1.1"
   id="Ebene_1"
   x="0px"
   y="0px"
   width="665.43799"
   height="154.20599"
   viewBox="64.445 197.14 665.43799 154.20599"
   enable-background="new 64.445 197.14 716 199.07"
   xml:space="preserve"
   sodipodi:docname="Meduni-wien.svg"
   inkscape:version="0.92.5 (2060ec1f9f, 2020-04-08)"><metadata
   id="metadata21"><rdf:RDF><cc:Work
       rdf:about=""><dc:format>image/svg+xml</dc:format><dc:type
         rdf:resource="http://purl.org/dc/dcmitype/StillImage" /><dc:title></dc:title></cc:Work></rdf:RDF></metadata><defs
   id="defs19" /><sodipodi:namedview
   pagecolor="#ffffff"
   bordercolor="#666666"
   borderopacity="1"
   objecttolerance="10"
   gridtolerance="10"
   guidetolerance="10"
   inkscape:pageopacity="0"
   inkscape:pageshadow="2"
   inkscape:window-width="1920"
   inkscape:window-height="987"
   id="namedview17"
   showgrid="false"
   fit-margin-top="0"
   fit-margin-left="0"
   fit-margin-right="0"
   fit-margin-bottom="0"
   inkscape:zoom="1.5585774"
   inkscape:cx="335.141"
   inkscape:cy="78.115996"
   inkscape:window-x="0"
   inkscape:window-y="0"
   inkscape:window-maximized="1"
   inkscape:current-layer="Ebene_1" />
<g
   id="g14"
   transform="translate(-22.859,-23.445)">
	<path
   d="m 164.403,374.791 c -42.51,0 -77.099,-34.572 -77.099,-77.098 0,-42.517 34.588,-77.108 77.099,-77.108 42.519,0 77.106,34.591 77.106,77.108 0,42.525 -34.587,77.098 -77.106,77.098 z m 0,-149.813 c -40.09,0 -72.704,32.621 -72.704,72.715 0,40.096 32.614,72.71 72.704,72.71 40.098,0 72.713,-32.614 72.713,-72.71 0,-40.094 -32.615,-72.715 -72.713,-72.715 z"
   id="path2"
   inkscape:connector-curvature="0"
   style="fill:#111d4e" />
	<path
   d="m 187.762,237.637 c -0.57,-0.218 -1.154,-0.438 -1.75,-0.651 -0.095,-0.03 -0.185,-0.06 -0.277,-0.095 l -0.197,-0.064 c -1.047,-0.364 -2.155,-0.717 -3.294,-1.047 -0.296,-0.084 -0.565,-0.164 -0.834,-0.236 -1.304,-0.356 -2.515,-0.652 -3.687,-0.895 l -0.175,-0.046 c -1.199,-0.246 -2.485,-0.47 -3.939,-0.675 -0.227,-0.038 -0.459,-0.069 -0.69,-0.091 l -0.296,-0.038 c -1.011,-0.129 -2.043,-0.236 -3.068,-0.319 l -0.277,-0.023 c -0.285,-0.023 -0.566,-0.045 -0.854,-0.061 -1.537,-0.098 -2.816,-0.14 -4.034,-0.14 -0.907,0 -1.888,0.027 -3.003,0.076 -0.228,0.011 -0.456,0.027 -0.676,0.042 l -0.288,0.015 c -0.66,0.042 -1.351,0.091 -2.042,0.155 -0.356,0.035 -0.721,0.073 -1.078,0.11 -0.622,0.069 -1.271,0.152 -1.98,0.251 l -0.334,0.045 c -0.224,0.031 -0.44,0.061 -0.657,0.092 -0.912,0.144 -1.831,0.311 -2.715,0.485 -0.262,0.053 -0.52,0.114 -0.774,0.175 l -0.387,0.083 c -0.535,0.118 -1.07,0.236 -1.602,0.372 -0.478,0.118 -0.952,0.243 -1.426,0.372 -0.422,0.114 -0.835,0.235 -1.252,0.357 -0.513,0.152 -1.034,0.307 -1.539,0.47 -0.239,0.076 -0.471,0.16 -0.706,0.236 l -0.231,0.083 c -2.004,0.683 -3.978,1.455 -5.859,2.309 l -0.198,0.091 c -0.083,0.038 -0.167,0.072 -0.25,0.114 -0.649,0.296 -1.308,0.615 -1.945,0.934 l -0.292,0.151 c -2.182,1.118 -4.307,2.363 -6.341,3.706 1.92,-0.471 3.866,-0.706 5.813,-0.706 7.812,0 15.191,3.742 19.845,10.035 4.652,-6.293 12.031,-10.035 19.842,-10.035 13.599,0 24.66,11.06 24.66,24.656 v 59.516 c 0,2.656 -2.161,4.82 -4.817,4.82 -2.66,0 -4.827,-2.164 -4.827,-4.82 V 267.93 c 0,-8.28 -6.734,-15.015 -15.016,-15.015 -8.282,0 -15.019,6.735 -15.019,15.015 v 59.516 c 0,2.656 -2.159,4.82 -4.823,4.82 -2.658,0 -4.822,-2.164 -4.822,-4.82 V 267.93 c 0,-8.28 -6.737,-15.015 -15.023,-15.015 -8.278,0 -15.014,6.735 -15.014,15.015 v 55.133 c 0.16,13.946 3.332,27.097 20.587,34.358 0.834,0.34 1.692,0.668 2.573,0.979 0.083,0.029 0.163,0.062 0.242,0.082 0.08,0.031 0.156,0.048 0.236,0.076 1.036,0.356 2.15,0.717 3.292,1.045 l 0.094,0.028 c 0.247,0.068 0.494,0.138 0.737,0.214 1.309,0.351 2.515,0.651 3.684,0.896 l 0.175,0.039 c 1.229,0.258 2.516,0.479 3.941,0.684 0.212,0.029 0.421,0.053 0.634,0.082 l 0.36,0.047 c 1.002,0.129 2.03,0.234 3.055,0.318 l 0.281,0.016 c 0.28,0.021 0.569,0.053 0.853,0.068 1.541,0.09 2.825,0.137 4.032,0.137 0.907,0 1.894,-0.023 3.009,-0.076 0.224,-0.008 0.448,-0.023 0.668,-0.039 l 0.289,-0.021 c 0.713,-0.047 1.4,-0.084 2.041,-0.152 0.364,-0.03 0.729,-0.067 1.086,-0.106 0.616,-0.065 1.261,-0.144 1.982,-0.25 l 0.323,-0.045 c 0.22,-0.03 0.444,-0.062 0.664,-0.099 0.911,-0.145 1.829,-0.305 2.724,-0.479 0.251,-0.051 0.501,-0.11 0.752,-0.165 l 0.394,-0.093 c 0.539,-0.121 1.078,-0.233 1.609,-0.371 0.478,-0.112 0.955,-0.25 1.425,-0.371 0.422,-0.114 0.839,-0.233 1.256,-0.364 0.516,-0.15 1.029,-0.297 1.541,-0.459 0.201,-0.074 0.399,-0.146 0.596,-0.203 l 0.334,-0.115 c 2.019,-0.691 3.988,-1.465 5.861,-2.314 l 0.091,-0.047 c 0.121,-0.053 0.239,-0.105 0.356,-0.158 0.661,-0.305 1.317,-0.623 1.947,-0.934 0.095,-0.053 0.19,-0.107 0.285,-0.152 2.182,-1.115 4.311,-2.352 6.35,-3.711 -1.922,0.479 -3.869,0.705 -5.819,0.705 -7.811,0 -15.19,-3.732 -19.839,-10.025 -4.654,6.293 -12.033,10.025 -19.842,10.025 -13.601,0 -24.664,-11.061 -24.664,-24.662 V 267.93 c 0,-2.658 2.163,-4.821 4.819,-4.821 2.662,0 4.829,2.163 4.829,4.821 v 59.516 c 0,8.289 6.738,15.031 15.016,15.031 8.28,0 15.017,-6.742 15.017,-15.031 V 267.93 c 0,-2.658 2.161,-4.821 4.825,-4.821 2.657,0 4.82,2.163 4.82,4.821 v 59.516 c 0,8.289 6.737,15.031 15.019,15.031 8.278,0 15.02,-6.742 15.02,-15.031 V 271.3 c -0.312,-13.777 -3.858,-26.645 -21.412,-33.663 z"
   id="path4"
   inkscape:connector-curvature="0"
   style="fill:#111d4e" />
	<path
   d="m 109.968,263.223 c -1.074,1.7 -2.083,3.446 -2.994,5.239 l -0.144,0.288 c -0.323,0.638 -0.641,1.29 -0.941,1.943 -0.046,0.091 -0.08,0.175 -0.122,0.258 l -0.083,0.19 c -0.85,1.867 -1.624,3.848 -2.315,5.868 l -0.076,0.22 c -0.079,0.236 -0.159,0.471 -0.235,0.706 -0.159,0.486 -0.304,0.979 -0.451,1.473 l -0.023,0.068 c -0.118,0.417 -0.239,0.827 -0.353,1.252 -0.129,0.471 -0.258,0.949 -0.376,1.427 -0.133,0.531 -0.25,1.063 -0.368,1.594 l -0.091,0.41 c -0.057,0.25 -0.116,0.502 -0.169,0.76 -0.174,0.879 -0.341,1.797 -0.486,2.708 -0.03,0.213 -0.06,0.425 -0.087,0.637 l -0.049,0.357 c -0.106,0.759 -0.186,1.382 -0.254,1.981 -0.035,0.357 -0.073,0.721 -0.107,1.078 -0.057,0.637 -0.11,1.305 -0.155,2.043 l -0.019,0.334 c -0.015,0.213 -0.027,0.418 -0.038,0.63 -0.05,1.086 -0.072,2.057 -0.076,2.983 0,0.917 0.023,1.89 0.072,2.99 0.015,0.213 0.023,0.426 0.038,0.639 l 0.015,0.242 c 0.046,0.729 0.099,1.457 0.163,2.164 l 0.023,0.258 c 0.019,0.203 0.042,0.418 0.061,0.613 0.106,1.002 0.224,1.92 0.356,2.813 0.019,0.123 0.038,0.244 0.057,0.357 0.023,0.098 0.035,0.188 0.054,0.287 0.117,0.735 0.242,1.457 0.387,2.164 0.068,0.362 0.146,0.729 0.229,1.092 0.114,0.555 0.247,1.117 0.395,1.729 l 0.076,0.313 c 0.06,0.266 0.129,0.531 0.197,0.789 0.213,0.813 0.444,1.633 0.698,2.459 0.091,0.289 0.182,0.567 0.281,0.864 l 0.121,0.365 c 0.145,0.446 0.296,0.901 0.456,1.351 0.167,0.471 0.334,0.934 0.508,1.389 0.145,0.387 0.296,0.76 0.448,1.131 0.695,1.727 1.469,3.438 2.3,5.078 0.133,0.258 0.265,0.523 0.402,0.781 0.311,0.592 0.588,1.106 0.85,1.578 0.068,0.121 0.144,0.243 0.216,0.373 l 0.122,0.211 c 0.489,0.858 0.99,1.678 1.487,2.469 z"
   id="path6"
   inkscape:connector-curvature="0"
   style="fill:#111d4e" />
	<path
   d="m 228.754,294.718 c -0.015,-0.289 -0.03,-0.585 -0.053,-0.873 -0.038,-0.716 -0.095,-1.444 -0.159,-2.173 l -0.019,-0.174 c -0.019,-0.228 -0.042,-0.463 -0.065,-0.698 -0.106,-0.995 -0.223,-1.921 -0.356,-2.816 -0.016,-0.114 -0.038,-0.236 -0.061,-0.357 -0.019,-0.091 -0.031,-0.182 -0.046,-0.266 -0.121,-0.743 -0.25,-1.472 -0.387,-2.176 -0.076,-0.364 -0.148,-0.73 -0.228,-1.095 -0.113,-0.516 -0.239,-1.07 -0.402,-1.738 l -0.091,-0.372 c -0.06,-0.243 -0.117,-0.478 -0.182,-0.721 -0.212,-0.819 -0.448,-1.646 -0.69,-2.451 -0.084,-0.258 -0.168,-0.501 -0.243,-0.759 -0.054,-0.152 -0.107,-0.311 -0.16,-0.463 -0.152,-0.463 -0.304,-0.918 -0.463,-1.373 -0.167,-0.456 -0.334,-0.921 -0.505,-1.376 -0.148,-0.387 -0.301,-0.759 -0.453,-1.146 -0.691,-1.723 -1.465,-3.423 -2.292,-5.055 l -0.091,-0.182 c -0.106,-0.205 -0.212,-0.41 -0.319,-0.615 -0.228,-0.44 -0.524,-1.003 -0.842,-1.565 -0.084,-0.152 -0.171,-0.296 -0.254,-0.448 l -0.095,-0.159 c -0.501,-0.873 -0.991,-1.685 -1.48,-2.467 v 64.246 c 0,0.16 -0.008,0.326 -0.008,0.486 v 4.235 c 1.078,-1.701 2.087,-3.453 2.998,-5.254 0.046,-0.074 0.091,-0.166 0.137,-0.258 l 0.015,-0.029 c 0.311,-0.615 0.615,-1.252 0.941,-1.942 0.038,-0.084 0.076,-0.175 0.114,-0.267 l 0.087,-0.182 c 0.85,-1.887 1.63,-3.848 2.313,-5.852 l 0.091,-0.258 c 0.072,-0.236 0.152,-0.455 0.22,-0.685 0.171,-0.508 0.319,-1.019 0.47,-1.532 0.126,-0.418 0.243,-0.843 0.361,-1.261 0.125,-0.472 0.254,-0.948 0.372,-1.42 0.148,-0.576 0.277,-1.168 0.372,-1.608 l 0.064,-0.295 c 0.069,-0.281 0.137,-0.576 0.19,-0.857 0.182,-0.904 0.349,-1.814 0.486,-2.717 0.038,-0.229 0.068,-0.455 0.098,-0.685 l 0.042,-0.303 c 0.106,-0.765 0.186,-1.396 0.254,-1.986 0.035,-0.362 0.069,-0.721 0.107,-1.084 0.061,-0.685 0.114,-1.366 0.151,-2.043 l 0.019,-0.265 c 0.012,-0.235 0.035,-0.463 0.042,-0.69 0.053,-1.116 0.076,-2.096 0.076,-3.005 0,-0.899 -0.023,-1.841 -0.076,-2.971 z"
   id="path8"
   inkscape:connector-curvature="0"
   style="fill:#111d4e" />
	<path
   d="m 294.292,310.132 0.486,-2.592 h -12.42 l -0.432,2.215 4.752,1.078 c 0.108,6.479 0.27,11.395 0.27,17.875 0,3.94 -0.432,7.02 -1.296,8.692 -1.566,2.972 -5.13,3.728 -8.856,3.728 -4.428,0 -6.588,-1.457 -7.83,-3.617 -0.972,-1.674 -1.242,-4.59 -1.242,-8.209 v -18.469 l 4.59,-0.646 0.594,-2.646 h -13.986 l -0.432,2.215 4.59,1.078 v 17.496 c 0,4.213 0.054,7.668 1.188,10.045 2.052,4.428 6.372,5.939 12.366,5.939 6.426,0 9.936,-2.213 11.826,-5.67 1.35,-2.484 1.512,-5.4 1.566,-10.908 0.054,-6.047 0.108,-10.854 0.27,-16.902 z m 17.171,33.373 0.54,-2.215 -5.832,-1.08 c -0.162,-19.656 -0.27,-23.221 -0.432,-26.894 2.105,3.457 3.888,6.05 20.628,31.158 l 2.754,-0.647 0.324,-32.994 4.212,-0.701 0.594,-2.592 h -13.554 l -0.54,2.215 5.832,1.078 c 0.054,14.742 0.216,20.467 0.378,25.381 -2.322,-3.617 -4.536,-6.805 -19.008,-28.674 h -8.803 l -0.485,2.16 4.859,1.08 -0.27,29.43 -4.212,0.701 -0.54,2.594 z m 40.823,0 0.486,-2.215 -5.563,-1.08 v -29.377 l 4.374,-0.646 0.594,-2.646 h -13.985 l -0.486,2.215 4.86,1.078 v 29.377 l -4.32,0.701 -0.54,2.594 h 14.58 z m 21.653,0.269 12.527,-32.94 3.564,-0.701 0.485,-2.592 h -12.204 l -0.485,2.215 4.914,1.078 c -8.101,22.844 -8.803,25.057 -9.612,27.541 -0.756,-2.377 -1.62,-4.752 -10.422,-27.541 l 4.644,-0.701 0.54,-2.592 h -13.338 l -0.54,2.215 3.618,1.078 12.96,32.94 z m 45.684,-0.269 c 0.324,-2.539 0.54,-5.672 0.594,-8.965 l -2.699,0.539 -1.513,5.51 -14.146,-0.486 v -14.041 l 8.854,0.379 1.352,3.887 1.997,-0.322 v -10.639 l -2.269,0.432 -1.08,3.295 -8.854,0.322 v -13.121 l 12.312,0.379 1.188,5.185 2.32,-0.647 c 0.379,-3.24 0.486,-5.131 0.486,-7.668 h -25.326 l -0.486,2.215 4.86,1.078 v 29.377 l -4.32,0.701 -0.54,2.594 h 27.271 v -0.004 z m 20.033,0 0.486,-2.16 -6.373,-1.135 v -12.42 c 1.135,0.055 2.594,0.106 3.836,0.106 0.539,0 1.133,0 1.674,-0.054 2.807,5.347 5.615,10.423 9.018,15.66 h 7.885 l 0.539,-2.16 -4.697,-1.026 c -3.023,-4.319 -5.615,-8.64 -8.264,-13.229 4.646,-1.352 7.777,-4.752 7.777,-9.774 0,-3.996 -1.404,-6.965 -5.184,-8.53 -2.055,-0.863 -4.914,-1.242 -9.234,-1.242 h -12.367 l -0.484,2.215 4.859,1.078 v 29.377 l -4.32,0.701 -0.539,2.594 h 15.388 z m -5.885,-18.576 v -14.635 c 0.918,-0.055 1.619,-0.055 2.32,-0.055 5.779,0 10.314,0.756 10.314,7.235 0,6.265 -4.32,7.614 -9.881,7.614 -0.648,0.003 -2.107,-0.051 -2.753,-0.159 z m 25.217,9.179 c 0,2.754 0.217,5.453 0.646,7.722 2.863,1.565 6.373,2.432 10.801,2.432 7.236,0 12.582,-4.051 12.582,-10.422 0,-4.375 -1.188,-6.48 -7.451,-9.234 l -5.238,-2.322 c -4.752,-2.053 -6.479,-3.727 -6.479,-6.805 0,-3.672 2.482,-5.832 7.02,-5.832 2.43,0 5.021,0.432 7.129,1.297 l 0.918,5.021 2.322,-0.486 c 0.432,-2.484 0.646,-4.805 0.646,-7.236 -2.377,-0.971 -5.832,-1.457 -9.611,-1.457 -7.992,0 -12.365,4.211 -12.365,9.828 0,4.645 2.32,7.127 7.182,9.396 l 4.859,2.213 c 5.617,2.539 7.02,4.104 7.02,7.129 0,4.32 -3.994,5.832 -8.207,5.832 -2.377,0 -5.453,-0.703 -7.396,-2.053 l -2.107,-5.615 z m 43.144,9.397 0.486,-2.215 -5.563,-1.08 v -29.377 l 4.375,-0.646 0.594,-2.646 h -13.986 l -0.484,2.215 4.859,1.078 v 29.377 l -4.32,0.701 -0.539,2.594 h 14.578 z m 25.76,0 0.484,-2.215 -5.67,-1.08 v -29.754 l 9.234,0.485 1.188,5.938 2.16,-0.539 c 0.379,-2.321 0.541,-6.428 0.541,-8.803 h -30.188 c 0,2.971 0.055,6.48 0.271,9.18 l 2.213,-0.538 1.297,-5.238 8.693,-0.485 v 29.754 l -4.482,0.701 -0.594,2.594 z m 18.574,0 0.486,-2.215 -5.994,-1.08 3.402,-9.18 h 13.391 l 3.402,9.18 -5.238,0.701 -0.484,2.594 h 14.635 l 0.484,-2.215 -4.318,-1.08 -12.477,-33.049 h -3.563 l -12.959,33.049 -3.672,0.701 -0.596,2.594 z m -1.025,-15.552 c 3.672,-9.828 4.805,-12.853 5.615,-15.554 0.918,2.81 1.943,5.617 5.563,15.554 z m 4.48,-27.487 c 0,-2.106 -1.24,-2.646 -2.482,-2.646 -1.352,0 -2.592,0.648 -2.592,2.646 0,1.998 1.297,2.592 2.482,2.592 1.46,0 2.592,-0.81 2.592,-2.592 z m 8.911,0 c 0,-2.106 -1.242,-2.646 -2.482,-2.646 -1.352,0 -2.594,0.648 -2.594,2.646 0,1.998 1.297,2.592 2.484,2.592 1.459,0 2.592,-0.81 2.592,-2.592 z m 30.996,43.039 0.486,-2.215 -5.67,-1.08 v -29.754 l 9.232,0.485 1.188,5.938 2.16,-0.539 c 0.377,-2.321 0.539,-6.428 0.539,-8.803 h -30.186 c 0,2.971 0.053,6.48 0.27,9.18 l 2.215,-0.538 1.297,-5.238 8.693,-0.485 v 29.754 l -4.482,0.701 -0.594,2.594 z m 38.879,0.269 c 6.695,-19.817 8.424,-25.11 9.504,-28.836 1.133,3.672 2.861,8.802 9.342,28.836 h 3.402 l 9.342,-32.888 3.564,-0.756 0.539,-2.592 h -13.121 l -0.486,2.215 5.777,1.133 c -4.807,18.359 -5.4,20.953 -6.533,26.027 -1.135,-4.104 -1.621,-5.723 -9.289,-28.512 h -3.4 c -7.613,23.113 -8.641,26.082 -9.344,28.566 -0.484,-2.43 -1.24,-5.615 -6.426,-26.137 l 5.238,-0.701 0.484,-2.592 h -13.93 l -0.541,2.215 3.672,1.078 8.803,32.94 h 3.402 v 0.004 z m 52.703,-0.269 0.486,-2.215 -5.564,-1.08 v -29.377 l 4.375,-0.646 0.594,-2.646 h -13.984 l -0.486,2.215 4.859,1.078 v 29.377 l -4.32,0.701 -0.539,2.594 h 14.579 z m 31.211,0 c 0.324,-2.539 0.541,-5.672 0.594,-8.965 l -2.699,0.539 -1.514,5.51 -14.146,-0.486 v -14.041 l 8.855,0.379 1.352,3.887 1.996,-0.322 v -10.639 l -2.268,0.432 -1.08,3.295 -8.855,0.322 v -13.121 l 12.313,0.379 1.188,5.185 2.322,-0.647 c 0.377,-3.24 0.484,-5.131 0.484,-7.668 h -25.326 l -0.482,2.215 4.857,1.078 v 29.377 l -4.32,0.701 -0.537,2.594 h 27.268 v -0.004 z m 17.334,0 0.539,-2.215 -5.832,-1.08 c -0.162,-19.656 -0.27,-23.221 -0.432,-26.894 2.105,3.457 3.889,6.05 20.629,31.158 l 2.754,-0.647 0.322,-32.994 4.213,-0.701 0.594,-2.592 h -13.555 l -0.539,2.215 5.832,1.078 c 0.055,14.742 0.217,20.467 0.379,25.381 -2.322,-3.617 -4.537,-6.805 -19.01,-28.674 h -8.803 l -0.484,2.16 4.859,1.08 -0.27,29.43 -4.213,0.701 -0.539,2.594 z"
   id="path10"
   inkscape:connector-curvature="0"
   style="fill:#111d4e" />
	<path
   d="m 272.26,289.904 0.486,-2.214 -5.778,-1.08 c 0,-19.872 -0.054,-21.816 -0.162,-28.026 1.404,3.294 3.618,8.208 11.664,25.11 l 2.592,-0.27 c 9.342,-18.9 10.8,-22.032 11.934,-24.84 -0.108,6.966 -0.108,9.666 -0.108,28.026 l -4.482,0.702 -0.594,2.592 h 14.742 l 0.486,-2.214 -5.562,-1.08 v -29.376 l 4.428,-0.648 0.54,-2.646 h -10.422 c -7.722,16.038 -9.72,20.358 -11.34,23.868 -1.404,-3.348 -3.294,-7.452 -11.07,-23.868 H 259.57 l -0.486,2.16 4.968,1.134 -0.54,29.376 -4.212,0.702 -0.594,2.592 z m 61.073,0 c 0.324,-2.538 0.54,-5.67 0.594,-8.964 l -2.7,0.54 -1.512,5.508 -14.147,-0.486 v -14.04 l 8.855,0.378 1.351,3.888 1.997,-0.324 v -10.638 l -2.268,0.432 -1.08,3.294 -8.855,0.324 v -13.122 l 12.312,0.378 1.188,5.184 2.321,-0.648 c 0.378,-3.24 0.486,-5.13 0.486,-7.668 h -25.326 l -0.485,2.214 4.859,1.08 v 29.376 l -4.32,0.702 -0.54,2.592 z m 4.644,0 h 9.45 c 4.158,0 9.396,-0.216 13.23,-1.512 7.614,-2.592 10.529,-8.856 10.529,-17.496 0,-9.288 -4.05,-13.932 -10.151,-15.822 -2.484,-0.756 -7.29,-1.134 -11.88,-1.134 h -10.692 l -0.486,2.214 4.86,1.08 v 29.376 l -4.32,0.702 z m 9.504,-3.456 v -29.43 c 1.079,-0.162 2.754,-0.162 3.779,-0.162 5.238,0 8.101,1.026 9.721,2.106 3.401,2.106 5.075,7.02 5.075,12.258 0,7.128 -1.943,12.42 -7.182,14.364 -1.512,0.54 -3.834,1.026 -7.614,1.026 -0.863,0 -2.807,-0.054 -3.779,-0.162 z m 41.255,3.456 0.485,-2.214 -5.562,-1.08 v -29.376 l 4.374,-0.648 0.594,-2.646 h -13.986 l -0.485,2.214 4.859,1.08 v 29.376 l -4.319,0.702 -0.54,2.592 z m 33.156,0 c 0.322,-2.16 0.811,-6.264 0.811,-9.018 l -2.107,-0.432 -2.268,6.264 -19.332,-0.378 c 2.538,-3.294 5.021,-6.642 23.003,-30.672 v -1.728 h -27.431 c -0.324,1.89 -0.757,5.94 -0.864,8.748 l 2.105,0.486 2.053,-5.886 17.712,-0.432 c -2.646,3.402 -5.67,7.506 -23.328,31.374 v 1.674 z m 18.791,0 0.486,-2.214 -5.563,-1.08 v -29.376 l 4.375,-0.648 0.594,-2.646 h -13.986 l -0.486,2.214 4.859,1.08 v 29.376 l -4.318,0.702 -0.541,2.592 z m 17.656,0 0.541,-2.214 -5.832,-1.08 c -0.162,-19.656 -0.27,-23.22 -0.432,-26.892 2.105,3.456 3.887,6.048 20.627,31.158 l 2.754,-0.648 0.324,-32.994 4.213,-0.702 0.594,-2.592 h -13.555 l -0.539,2.214 5.832,1.08 c 0.053,14.742 0.215,20.466 0.377,25.38 -2.322,-3.618 -4.535,-6.804 -19.008,-28.674 h -8.803 l -0.484,2.16 4.859,1.08 -0.271,29.43 -4.211,0.702 -0.541,2.592 z m 40.825,0 0.486,-2.214 -5.564,-1.08 v -29.376 l 4.375,-0.648 0.594,-2.646 H 485.07 l -0.486,2.214 4.859,1.08 v 29.376 l -4.32,0.702 -0.539,2.592 z m 4.32,-9.396 c 0,2.754 0.215,5.454 0.646,7.722 2.861,1.566 6.371,2.43 10.801,2.43 7.234,0 12.58,-4.05 12.58,-10.422 0,-4.374 -1.188,-6.48 -7.449,-9.234 l -5.238,-2.322 c -4.752,-2.052 -6.48,-3.726 -6.48,-6.804 0,-3.672 2.484,-5.832 7.021,-5.832 2.43,0 5.02,0.432 7.127,1.296 l 0.918,5.022 2.322,-0.486 c 0.432,-2.484 0.646,-4.806 0.646,-7.236 -2.375,-0.972 -5.832,-1.458 -9.609,-1.458 -7.992,0 -12.367,4.212 -12.367,9.828 0,4.645 2.322,7.128 7.182,9.396 l 4.861,2.214 c 5.615,2.538 7.02,4.104 7.02,7.128 0,4.32 -3.996,5.832 -8.209,5.832 -2.375,0 -5.453,-0.702 -7.396,-2.052 l -2.105,-5.616 z m 55.564,6.804 0.539,-3.24 c -3.939,1.998 -6.695,2.7 -10.689,2.7 -6.75,0 -12.529,-4.212 -12.529,-15.228 0,-9.882 3.889,-15.336 11.771,-15.336 2.215,0 4.43,0.216 6.75,1.134 l 1.242,5.616 2.27,-0.648 c 0.432,-2.754 0.484,-5.184 0.484,-7.56 -1.836,-0.756 -4.535,-1.62 -9.883,-1.62 -10.313,0 -17.441,6.804 -17.441,19.494 0,11.07 5.617,18.09 16.416,18.09 4.697,0 8.371,-1.35 11.07,-3.402 z m 19.764,2.592 0.484,-2.214 -5.561,-1.08 v -13.878 h 17.279 v 13.878 l -4.32,0.702 -0.539,2.592 h 14.525 l 0.484,-2.214 -5.561,-1.08 v -29.376 l 4.428,-0.648 0.539,-2.646 h -13.986 l -0.484,2.214 4.914,1.08 v 12.312 h -17.279 v -12.312 l 4.373,-0.648 0.594,-2.646 h -13.986 l -0.484,2.214 4.859,1.08 v 29.376 l -4.318,0.702 -0.541,2.592 z m 53.135,0 c 0.322,-2.538 0.539,-5.67 0.594,-8.964 l -2.701,0.54 -1.512,5.508 -14.146,-0.486 v -14.04 l 8.855,0.378 1.35,3.888 1.998,-0.324 v -10.638 l -2.268,0.432 -1.08,3.294 -8.855,0.324 v -13.122 l 12.313,0.378 1.188,5.184 2.32,-0.648 c 0.379,-3.24 0.486,-5.13 0.486,-7.668 h -25.326 l -0.486,2.214 4.861,1.08 v 29.376 l -4.32,0.702 -0.541,2.592 z"
   id="path12"
   inkscape:connector-curvature="0"
   style="fill:#111d4e" />
</g>
</svg>