<?xml version="1.0" encoding="UTF-8" standalone="no"?>
<!-- Created with Inkscape (http://www.inkscape.org/) -->

<svg
   xmlns:dc="http://purl.org/dc/elements/1.1/"
   xmlns:cc="http://creativecommons.org/ns#"
   xmlns:rdf="http://www.w3.org/1999/02/22-rdf-syntax-ns#"
   xmlns:svg="http://www.w3.org/2000/svg"
   xmlns="http://www.w3.org/2000/svg"
   xmlns:sodipodi="http://sodipodi.sourceforge.net/DTD/sodipodi-0.dtd"
   xmlns:inkscape="http://www.inkscape.org/namespaces/inkscape"
   version="1.1"
   id="svg2"
   xml:space="preserve"
   width="639.44135"
   height="284.41998"
   viewBox="0 0 639.44135 284.41999"
   sodipodi:docname="tweet_example.ai.svg"
   inkscape:version="0.92.5 (2060ec1f9f, 2020-04-08)"><metadata
     id="metadata8"><rdf:RDF><cc:Work
         rdf:about=""><dc:format>image/svg+xml</dc:format><dc:type
           rdf:resource="http://purl.org/dc/dcmitype/StillImage" /><dc:title></dc:title></cc:Work></rdf:RDF></metadata><defs
     id="defs6"><clipPath
       clipPathUnits="userSpaceOnUse"
       id="clipPath28"><path
         d="M 0,1517.226 H 929.922 V 0 H 0 Z"
         id="path26"
         inkscape:connector-curvature="0" /></clipPath><clipPath
       clipPathUnits="userSpaceOnUse"
       id="clipPath74"><path
         d="M 0,1517.226 H 929.922 V 0 H 0 Z"
         id="path72"
         inkscape:connector-curvature="0" /></clipPath><clipPath
       clipPathUnits="userSpaceOnUse"
       id="clipPath92"><path
         d="M 0,1517.226 H 929.922 V 0 H 0 Z"
         id="path90"
         inkscape:connector-curvature="0" /></clipPath><clipPath
       clipPathUnits="userSpaceOnUse"
       id="clipPath144"><path
         d="M 0,1517.226 H 929.922 V 0 H 0 Z"
         id="path142"
         inkscape:connector-curvature="0" /></clipPath><clipPath
       clipPathUnits="userSpaceOnUse"
       id="clipPath158"><path
         d="M 0,1517.226 H 929.922 V 0 H 0 Z"
         id="path156"
         inkscape:connector-curvature="0" /></clipPath><clipPath
       clipPathUnits="userSpaceOnUse"
       id="clipPath202"><path
         d="M 0,1517.226 H 929.922 V 0 H 0 Z"
         id="path200"
         inkscape:connector-curvature="0" /></clipPath><clipPath
       clipPathUnits="userSpaceOnUse"
       id="clipPath222"><path
         d="M 0,1517.226 H 929.922 V 0 H 0 Z"
         id="path220"
         inkscape:connector-curvature="0" /></clipPath><clipPath
       clipPathUnits="userSpaceOnUse"
       id="clipPath246"><path
         d="M 0,1517.226 H 929.922 V 0 H 0 Z"
         id="path244"
         inkscape:connector-curvature="0" /></clipPath><clipPath
       clipPathUnits="userSpaceOnUse"
       id="clipPath266"><path
         d="M 0,1517.226 H 929.922 V 0 H 0 Z"
         id="path264"
         inkscape:connector-curvature="0" /></clipPath><clipPath
       clipPathUnits="userSpaceOnUse"
       id="clipPath286"><path
         d="M 0,1517.226 H 929.922 V 0 H 0 Z"
         id="path284"
         inkscape:connector-curvature="0" /></clipPath></defs><sodipodi:namedview
     pagecolor="#ffffff"
     bordercolor="#666666"
     borderopacity="1"
     objecttolerance="10"
     gridtolerance="10"
     guidetolerance="10"
     inkscape:pageopacity="0"
     inkscape:pageshadow="2"
     inkscape:window-width="1920"
     inkscape:window-height="987"
     id="namedview4"
     showgrid="false"
     inkscape:zoom="2.0287644"
     inkscape:cx="309.68972"
     inkscape:cy="228.08356"
     inkscape:window-x="0"
     inkscape:window-y="0"
     inkscape:window-maximized="1"
     inkscape:current-layer="g10"
     fit-margin-top="0"
     fit-margin-left="0"
     fit-margin-right="0"
     fit-margin-bottom="0" /><g
     id="g10"
     inkscape:groupmode="layer"
     inkscape:label="2021 Twitter Tweet template - Helvetica"
     transform="matrix(1.3333333,0,0,-1.3333333,-1639.4608,1735.4954)"><g
       id="g356"
       transform="translate(1129.2716,-1.5684329)"><g
         id="g68"><g
           clip-path="url(#clipPath74)"
           id="g70"><path
             inkscape:connector-curvature="0"
             id="path76"
             style="fill:#ffffff;fill-opacity:1;fill-rule:nonzero;stroke:none"
             d="M 579.905,1089.875 H 100.324 v 213.315 h 479.581 z" /><g
             transform="translate(150.5484,1268.9473)"
             id="g78"><path
               inkscape:connector-curvature="0"
               id="path80"
               style="fill:#647787;fill-opacity:1;fill-rule:nonzero;stroke:none"
               d="m 0,0 c 0,-8.887 -7.204,-16.091 -16.091,-16.091 -8.887,0 -16.091,7.204 -16.091,16.091 0,8.887 7.204,16.091 16.091,16.091 C -7.204,16.091 0,8.887 0,0" /></g></g></g><g
         id="g320"><text
           transform="matrix(1,0,0,-1,121.7949,1191.7324)"
           style="font-variant:normal;font-weight:normal;font-stretch:normal;font-size:31px;font-family:'HelveticaNeueLT Pro 55 Roman';-inkscape-font-specification:HelveticaNeueLTPro-Roman;writing-mode:lr-tb;fill:#000000;fill-opacity:1;fill-rule:nonzero;stroke:none"
           id="text84"><tspan
             x="0"
             sodipodi:role="line"
             id="tspan82"
             y="0">This tweet contains emotions.</tspan></text>
<g
           id="g86"><g
             id="g88"
             clip-path="url(#clipPath92)"><g
               id="g94"
               transform="translate(541.1294,1257.855)"><path
                 d="m 0,0 c -3.244,0 -6.264,0.951 -8.806,2.581 0.45,-0.054 0.908,-0.08 1.37,-0.08 2.692,0 5.169,0.918 7.135,2.459 -2.514,0.047 -4.635,1.707 -5.366,3.99 0.35,-0.067 0.71,-0.104 1.08,-0.104 0.524,0 1.031,0.071 1.514,0.202 -2.628,0.527 -4.609,2.85 -4.609,5.632 0,0.026 0,0.049 0.001,0.073 0.775,-0.43 1.66,-0.689 2.603,-0.718 -1.543,1.029 -2.557,2.789 -2.557,4.781 0,1.053 0.284,2.039 0.779,2.888 2.833,-3.476 7.066,-5.762 11.84,-6.002 -0.098,0.421 -0.149,0.859 -0.149,1.31 0,3.171 2.573,5.744 5.745,5.744 1.652,0 3.146,-0.698 4.193,-1.815 1.309,0.258 2.539,0.736 3.649,1.394 -0.43,-1.341 -1.341,-2.466 -2.526,-3.177 1.162,0.139 2.269,0.447 3.298,0.904 C 18.425,18.91 17.45,17.898 16.328,17.087 16.34,16.841 16.345,16.594 16.345,16.345 16.345,8.754 10.566,0 0,0"
                 style="fill:#0799f3;fill-opacity:1;fill-rule:nonzero;stroke:none"
                 id="path96"
                 inkscape:connector-curvature="0" /></g><g
               id="g98"
               transform="translate(133.4478,1116.3369)"><path
                 d="m 0,0 c -0.747,-0.632 -3.2,-2.242 -4.458,-3.056 v 2.098 c 0,0.272 -0.221,0.493 -0.493,0.493 h -0.262 c -2.41,0 -4.159,1.63 -4.159,3.875 0,2.326 1.822,4.148 4.147,4.148 l 2.729,-0.007 h 0.002 C -0.17,7.551 1.651,5.73 1.653,3.407 1.652,2.149 1.034,0.876 0,0 M -2.493,8.538 V 8.539 L -5.224,8.545 V 8.544 l -10e-4,10e-4 c -2.879,0 -5.134,-2.256 -5.134,-5.135 0,-2.698 2.097,-4.743 4.914,-4.852 v -2.519 c 0,-0.072 0.028,-0.189 0.078,-0.266 0.094,-0.148 0.253,-0.228 0.416,-0.228 0.091,0 0.182,0.025 0.265,0.078 0.173,0.11 4.26,2.724 5.324,3.624 1.252,1.06 2.001,2.612 2.003,4.154 V 3.404 3.407 3.412 C 2.637,6.287 0.384,8.538 -2.493,8.538"
                 style="fill:#647787;fill-opacity:1;fill-rule:nonzero;stroke:none"
                 id="path100"
                 inkscape:connector-curvature="0" /></g><g
               id="g102"
               transform="translate(251.0826,1115.9541)"><path
                 d="m 0,0 c -0.193,0.193 -0.506,0.193 -0.698,0 l -1.675,-1.675 v 7.168 c 0,1.361 -1.107,2.468 -2.469,2.468 h -4.377 c -0.272,0 -0.493,-0.221 -0.493,-0.493 0,-0.273 0.221,-0.494 0.493,-0.494 h 4.377 c 0.817,0 1.482,-0.664 1.482,-1.481 V -1.675 L -5.035,0 c -0.194,0.193 -0.505,0.193 -0.698,0 -0.193,-0.193 -0.193,-0.505 0,-0.698 l 2.517,-2.517 c 0.092,-0.093 0.218,-0.145 0.349,-0.145 0.131,0 0.257,0.052 0.349,0.145 L 0,-0.698 C 0.192,-0.505 0.192,-0.193 0,0"
                 style="fill:#647787;fill-opacity:1;fill-rule:nonzero;stroke:none"
                 id="path104"
                 inkscape:connector-curvature="0" /></g><g
               id="g106"
               transform="translate(243.4888,1113.4497)"><path
                 d="m 0,0 h -4.377 c -0.816,0 -1.481,0.664 -1.481,1.481 v 7.168 l 1.674,-1.675 c 0.097,-0.097 0.223,-0.145 0.35,-0.145 0.127,0 0.253,0.048 0.349,0.145 0.193,0.193 0.193,0.505 0,0.698 l -2.518,2.517 c -0.192,0.193 -0.505,0.193 -0.698,0 L -9.219,7.672 c -0.193,-0.193 -0.193,-0.505 0,-0.698 0.193,-0.193 0.505,-0.193 0.698,0 l 1.675,1.675 V 1.481 c 0,-1.361 1.108,-2.468 2.469,-2.468 H 0 c 0.272,0 0.494,0.221 0.494,0.493 C 0.494,-0.221 0.272,0 0,0"
                 style="fill:#647787;fill-opacity:1;fill-rule:nonzero;stroke:none"
                 id="path108"
                 inkscape:connector-curvature="0" /></g><g
               id="g110"
               transform="translate(481.7867,1121.5391)"><path
                 d="m 0,0 -3.161,3.161 c -0.185,0.185 -0.485,0.185 -0.67,0 L -6.992,0 c -0.185,-0.185 -0.185,-0.485 0,-0.67 0.185,-0.185 0.485,-0.185 0.671,0 L -3.97,1.681 V -4.76 c 0,-0.261 0.212,-0.474 0.474,-0.474 0.262,0 0.474,0.213 0.474,0.474 v 6.441 l 2.351,-2.351 c 0.093,-0.093 0.214,-0.139 0.335,-0.139 0.122,0 0.243,0.046 0.336,0.139 0.185,0.185 0.185,0.485 0,0.67"
                 style="fill:#647787;fill-opacity:1;fill-rule:nonzero;stroke:none"
                 id="path112"
                 inkscape:connector-curvature="0" /></g><g
               id="g114"
               transform="translate(483.1626,1112.3896)"><path
                 d="m 0,0 h -9.744 c -0.799,0 -1.449,0.65 -1.449,1.449 v 3.572 c 0,0.262 0.213,0.475 0.474,0.475 0.262,0 0.474,-0.213 0.474,-0.475 V 1.449 c 0,-0.276 0.224,-0.501 0.501,-0.501 H 0 c 0.276,0 0.501,0.225 0.501,0.501 v 3.572 c 0,0.262 0.212,0.475 0.474,0.475 0.261,0 0.474,-0.213 0.474,-0.475 V 1.449 C 1.449,0.65 0.799,0 0,0"
                 style="fill:#647787;fill-opacity:1;fill-rule:nonzero;stroke:none"
                 id="path116"
                 inkscape:connector-curvature="0" /></g><g
               id="g118"
               transform="translate(357.1548,1123.5703)"><path
                 d="m 0,0 c -1.368,0 -2.569,-1.309 -2.569,-2.801 0,-3.779 4.63,-7.633 5.628,-7.674 0.998,0.041 5.628,3.895 5.628,7.674 C 8.687,-1.309 7.485,0 6.116,0 4.452,0 3.523,-1.933 3.516,-1.952 3.363,-2.322 2.754,-2.322 2.603,-1.952 2.594,-1.933 1.665,0 0,0 M 3.059,-11.462 H 3.05 c -1.7,0.031 -6.607,4.463 -6.607,8.661 0,2.018 1.663,3.788 3.557,3.788 1.508,0 2.522,-1.041 3.059,-1.796 0.537,0.755 1.55,1.796 3.057,1.796 1.896,0 3.558,-1.77 3.558,-3.788 0,-4.198 -4.906,-8.63 -6.607,-8.661 z"
                 style="fill:#647787;fill-opacity:1;fill-rule:nonzero;stroke:none"
                 id="path120"
                 inkscape:connector-curvature="0" /></g></g></g><text
           transform="matrix(1,0,0,-1,122.7949,1157.6631)"
           style="font-variant:normal;font-weight:normal;font-stretch:normal;font-size:13px;font-family:'HelveticaNeueLT Pro 55 Roman';-inkscape-font-specification:HelveticaNeueLTPro-Roman;writing-mode:lr-tb;fill:#647787;fill-opacity:1;fill-rule:nonzero;stroke:none"
           id="text124"><tspan
             x="0 6.3245001 9.6030998 16.7817 24.009701 27.623699 35.764301 47.087299 50.701302 57.201302 60.8153 70.695297 77.717903 81.812897 85.426903 92.4105 96.024498 99.638496 106.6286 113.8345 120.8246"
             y="0"
             sodipodi:role="line"
             id="tspan122">7:35 PM • Oct 5, 2020</tspan></text>
<text
           transform="matrix(1,0,0,-1,156.0923,1271.1113)"
           style="font-variant:normal;font-weight:bold;font-stretch:normal;font-size:13px;font-family:'HelveticaNeueLT Pro 55 Roman';-inkscape-font-specification:HelveticaNeueLTPro-Bd;writing-mode:lr-tb;fill:#000000;fill-opacity:1;fill-rule:nonzero;stroke:none"
           id="text234"><tspan
             x="0 9.7058001 17.258801 29.1278"
             y="0"
             sodipodi:role="line"
             id="tspan232">Name</tspan></text>
<text
           transform="matrix(1,0,0,-1,156.0923,1256.8243)"
           style="font-variant:normal;font-weight:normal;font-stretch:normal;font-size:13px;font-family:'HelveticaNeueLT Pro 55 Roman';-inkscape-font-specification:HelveticaNeueLTPro-Roman;writing-mode:lr-tb;fill:#647787;fill-opacity:1;fill-rule:nonzero;stroke:none"
           id="text238"><tspan
             x="0 10.2895 17.459 24.4452 31.6355 39.240501 42.064098"
             y="0"
             sodipodi:role="line"
             id="tspan236">@handle</tspan></text>
<g
           id="g240"><g
             id="g242"
             clip-path="url(#clipPath246)"><g
               id="g248"
               transform="translate(206.2808,1277.4888)"><path
                 d="m 0,0 -2.495,-3.741 c -0.083,-0.125 -0.22,-0.192 -0.359,-0.192 -0.083,0 -0.166,0.023 -0.239,0.072 l -0.066,0.054 -1.39,1.39 c -0.168,0.168 -0.168,0.442 0,0.61 0.169,0.169 0.443,0.169 0.611,0 l 1.017,-1.017 2.202,3.303 C -0.587,0.678 -0.318,0.73 -0.12,0.598 0.078,0.466 0.132,0.198 0,0 m 3.808,-1.919 c 0,0.91 -0.504,1.698 -1.237,2.072 0.089,0.251 0.138,0.521 0.138,0.805 0,1.272 -0.984,2.302 -2.198,2.302 -0.271,0 -0.53,-0.049 -0.769,-0.143 -0.356,0.767 -1.108,1.295 -1.977,1.295 -0.87,0 -1.621,-0.528 -1.979,-1.295 -0.238,0.094 -0.498,0.143 -0.768,0.143 -1.214,0 -2.198,-1.03 -2.198,-2.302 0,-0.284 0.048,-0.554 0.137,-0.805 -0.731,-0.374 -1.235,-1.162 -1.235,-2.072 0,-0.86 0.45,-1.61 1.117,-2.006 -0.012,-0.097 -0.019,-0.196 -0.019,-0.296 0,-1.272 0.984,-2.301 2.198,-2.301 0.27,0 0.53,0.048 0.768,0.143 0.358,-0.768 1.109,-1.295 1.979,-1.295 0.869,0 1.621,0.527 1.977,1.295 0.239,-0.095 0.498,-0.143 0.769,-0.143 1.214,0 2.198,1.029 2.198,2.301 0,0.1 -0.008,0.199 -0.02,0.296 0.666,0.396 1.119,1.146 1.119,2.006"
                 style="fill:#0799f3;fill-opacity:1;fill-rule:nonzero;stroke:none"
                 id="path250"
                 inkscape:connector-curvature="0" /></g></g></g></g></g></g></svg>